<svg width="24" height="24" viewBox="0 0 24 24" fill="none" xmlns="http://www.w3.org/2000/svg">
<g id="Icon=view_card">
<path id="Rectangle 1446" d="M5 6C5 5.44772 5.44772 5 6 5H10C10.5523 5 11 5.44772 11 6V10C11 10.5523 10.5523 11 10 11H6C5.44772 11 5 10.5523 5 10V6Z" fill="#3C3C3C"/>
<path id="Rectangle 1449" d="M5 14C5 13.4477 5.44772 13 6 13H10C10.5523 13 11 13.4477 11 14V18C11 18.5523 10.5523 19 10 19H6C5.44772 19 5 18.5523 5 18V14Z" fill="#3C3C3C"/>
<path id="Rectangle 1447" d="M13 6C13 5.44772 13.4477 5 14 5H18C18.5523 5 19 5.44772 19 6V10C19 10.5523 18.5523 11 18 11H14C13.4477 11 13 10.5523 13 10V6Z" fill="#3C3C3C"/>
<path id="Rectangle 1448" d="M13 14C13 13.4477 13.4477 13 14 13H18C18.5523 13 19 13.4477 19 14V18C19 18.5523 18.5523 19 18 19H14C13.4477 19 13 18.5523 13 18V14Z" fill="#3C3C3C"/>
</g>
</svg>
